<svg xmlns="http://www.w3.org/2000/svg" height="24" width="24" viewBox="0 0 24 24">
  <path fill="none" stroke="#1e293b" stroke-width="2.2" stroke-linecap="round" stroke-linejoin="round" d="M15.043045 17.412408c2.017791-.239322 3.963583-.713708 5.809148-1.395039-.474779-2.027719-1.184921-4.388877-1.649152-7.3755593-.701726-4.5146452-3.673462-6.2275117-7.202817-6.2275117-3.529354 0-6.0006718 1.5765039-6.8778766 6.2275117-.6027303 3.1957213-1.5211041 5.4677353-1.9745406 7.3755593 1.8456949.681331 3.7916247 1.155717 5.8096385 1.395145m6.0855997-.000106c-.99787.11833-2.013315.179253-3.043033.179253-1.029505 0-2.0448452-.06081-3.0425667-.179147m6.0855997-.000106c.09894.308234.152414.636917.152414.978062 0 1.764728-1.430507 3.195232-3.195235 3.195232-1.764726 0-3.195234-1.430504-3.195234-3.195232 0-.341145.053456-.669721.1524553-.977956"/>
</svg>