<svg xmlns="http://www.w3.org/2000/svg" height="24" width="24" viewBox="0 0 24 24">
  <path fill="#fff" d="M12 1C5.9 1 1 5.9 1 12s4.9 11 11 11 11-4.9 11-11S18.1 1 12 1Zm0 2.4003906C16.7 3.4003906 20.599609 7.3 20.599609 12c0 1.9-.599218 3.699609-1.699218 5.099609l-3.292969-3.292968-1.800781 1.800781 3.292968 3.292969c-1.4 1.1-3.199609 1.699218-5.099609 1.699218C7.3 20.599609 3.4003906 16.7 3.4003906 12c0-1.9.5992188-3.6996094 1.6992188-5.0996094l3.2929687 3.2929684 1.8007809-1.8007809-3.2929684-3.2929687c1.4-1.1 3.1996094-1.6992188 5.0996094-1.6992188Z"/>
</svg>