<svg xmlns="http://www.w3.org/2000/svg" height="24" width="24" viewBox="0 0 24 24">
  <path fill="#fff" d="m12.674 3 2.432 4.093h-4.565L8.373 3.026c.169-.011.343-.018.525-.023L9.177 3h3.497Zm1.903 0h.245c2.503 0 3.655.617 4.613 1.544.639.635 1.09 1.433 1.306 2.307l.058.242h-3.787L14.577 3Zm-7.909.308 2.019 3.785H3.199c.338-1.723 1.566-3.136 3.225-3.707l.244-.078Zm7.965 10.501-3.719-2.146c-.459-.266-1.04.02-1.109.545l-.007.099V16.6c.002.529.538.889 1.028.687l.088-.042 3.719-2.148c.459-.264.501-.909.082-1.233l-.082-.055-3.719-2.146 3.719 2.146ZM3.015 8.729h17.97l.013.294.002.156v5.644c0 2.504-.618 3.656-1.545 4.614-.941.912-2.045 1.519-4.36 1.562l-.273.002H9.179c-2.505 0-3.656-.617-4.615-1.544-.911-.942-1.518-2.045-1.562-4.362L3 14.823V9.179l.002-.156.013-.294Z"/>
</svg>