<svg xmlns="http://www.w3.org/2000/svg" height="24" width="24" viewBox="0 0 24 24">
  <path fill="#fff" d="M15.120727 3.0090253c-.122533-.012657-.245676-.011974-.367781.00146-.488419.053759-.954702.3146304-1.241075.7649139l-2.946639 4.6319852c-1.4199635-.236012-2.8826052-.03928-4.1349633.688714l-.00146.0015c-.9419375.552691-1.1103892 1.8811676-.3370105 2.6522876l2.6799607 2.681595-5.606085 5.606436a.56311814.5631535 0 1 0 .7956362.797151l5.6075502-5.607901 2.6828917 2.683059c.771072.773427 2.098003.603496 2.650655-.338496l.0015-.0015c.727612-1.251892.924163-2.712783.688672-4.132293l4.633152-2.949754c.900784-.5735616 1.041424-1.8643706.285719-2.6185766v-.00146l-4.381159-4.3814162c-.283083-.2829145-.641966-.4397331-1.009564-.4777049Z"/>
</svg>