<svg xmlns="http://www.w3.org/2000/svg" height="24" width="24" viewBox="0 0 24 24">
  <path fill="#1e293b" d="M17.186 21.695c-2.512 1.294-5.332 1.642-7.99.94-2.657-.702-5.226-2.555-6.715-5.137C.422 13.925.692 9.61 2.488 6.505c1.795-3.106 5.399-5.494 9.523-5.491 4.123.002 7.725 2.394 9.517 5.501 1.792 3.108 1.969 7.083.195 10.611l1.699 6.309Zm2.393-4.841.211-.346c1.859-3.048 1.576-6.27.005-8.993-1.57-2.724-4.216-4.499-7.785-4.501-3.569-.002-6.218 1.77-7.791 4.492-1.573 2.721-1.788 5.901-.005 8.993 1.284 2.226 3.181 3.591 5.493 4.202 2.312.611 4.659.399 6.853-.94l.356-.218 3.662 1.022Z"/>
</svg>