<svg xmlns="http://www.w3.org/2000/svg" height="24" width="24" viewport="0 0 24 24">
  <path fill="#fff" d="M12.858 15.595c-.228.218-.51.365-.858.365-.235 0-.614-.14-.858-.365l-3.128-3.129c-.222-.236-.365-.568-.365-.844 0-.283.147-.578.368-.775.236-.223.565-.363.842-.363.282 0 .576.146.773.366l1.146 1.146V2.098l.005-.021c.061-.28.216-.571.415-.755.201-.186.508-.322.802-.322.294 0 .606.138.796.329.19.189.318.501.328.795v9.774l1.147-1.147c.237-.222.568-.364.845-.364.283 0 .578.146.775.367.223.237.36.559.374.843.015.285-.09.609-.256.843l-.009.012-3.142 3.143ZM12 23c-3.224 0-6.006-1.138-7.934-3.066S1 15.224 1 12c0-.304.175-.622.39-.808.213-.185.543-.316.832-.316.295 0 .606.137.796.328.191.19.329.502.329.796 0 2.593.889 4.724 2.444 6.255 1.556 1.531 3.713 2.398 6.307 2.398 2.594 0 4.725-.866 6.256-2.397 1.531-1.53 2.397-3.662 2.397-6.256 0-.294.138-.606.329-.796.189-.191.501-.328.796-.328.294 0 .606.137.795.328.191.19.329.502.329.796 0 3.224-1.138 6.006-3.066 7.934S15.224 23 12 23Z"/>
</svg>