<svg xmlns="http://www.w3.org/2000/svg" height="24" width="24" viewBox="0 0 24 24">
  <path fill="#1e293b" d="M21.2 22.5h-5.4c-1 0-1.8-.8-1.8-1.8v-4.6c0-.8-.4-1.5-1-1.7-1-.4-1.7-.1-2 .1-.6.4-.9 1-.9 1.6v4.6c0 1-.8 1.8-1.8 1.8H2.8c-1 0-1.8-.8-1.8-1.8v-8.6c0-.8.3-1.6.9-2.2l8.3-7.8c1-.9 2.5-.9 3.5 0L22 9.9c.6.6.9 1.4.9 2.2v8.6c.1 1-.7 1.8-1.7 1.8zm-5.2-2h5v-8.4c0-.3-.1-.6-.3-.8l-8.3-7.8c-.2-.2-.5-.2-.7 0l-8.3 7.8c-.3.3-.4.5-.4.8v8.4h5v-4.4c0-1.3.7-2.6 1.8-3.3 1.2-.7 2.6-.8 3.9-.2 1.4.6 2.2 2 2.2 3.5v4.4z"/>
</svg>