<svg xmlns="http://www.w3.org/2000/svg" height="24" width="24" viewBox="0 0 24 24">
  <path fill="#fff" d="M16.8 4c2.7.2 4.8 2.5 4.7 5.2 0 3.1-2.7 5-5.2 7.2s-3.9 3.5-4.3 3.8c-.5-.3-2.1-1.8-4.3-3.8-2.6-2.4-5.2-4.2-5.2-7.2-.1-2.7 2-5.1 4.7-5.2 1.5 0 2.9.7 3.7 1.9.8 1.2 1 1.8 1.1 1.8s.3-.6 1.1-1.8c.8-1.2 2.2-2 3.7-1.9m0-2c-1.8-.1-3.6.7-4.8 2.1C10.8 2.7 9 1.9 7.2 2 3.4 2.2.4 5.4.5 9.2c0 3.6 2.5 5.8 5 8 .3.2.6.5.9.7l1 .9c1.1 1.1 2.3 2.1 3.5 3 .7.4 1.5.4 2.2 0 1.3-1 2.5-2 3.6-3.1l.9-.8c.3-.3.6-.5.9-.8 2.3-2 5-4.3 5-7.9.1-3.8-2.9-7-6.7-7.2z"/>
</svg>