<svg xmlns="http://www.w3.org/2000/svg" height="24" width="24" viewBox="0 0 24 24">
  <path fill="#334155" d="M14.1 16.4c-.3 0-.6 0-.9-.1-1.7-.2-3.2-1.1-4.2-2.5-.4-.6-.3-1.4.3-1.8.6-.4 1.4-.3 1.8.3.6.8 1.5 1.4 2.5 1.5 1 .1 2-.1 2.9-.7.1-.1.3-.2.4-.4L20 9.6c1.5-1.5 1.4-4-.1-5.4-1.5-1.4-3.9-1.4-5.4 0l-1.8 1.7c-.5.5-1.3.5-1.8 0s-.5-1.3 0-1.8l1.8-1.8a6.4 6.4 0 0 1 8.9 0c2.5 2.5 2.6 6.5.2 9.1l-3.1 3.1c-.2.2-.4.4-.7.6-1.2.8-2.5 1.3-3.9 1.3zm-2.7 5.3 1.8-1.8c.5-.5.5-1.3 0-1.8s-1.3-.5-1.8 0l-1.7 1.7c-1.5 1.4-3.9 1.4-5.4 0-1.5-1.5-1.6-3.9-.1-5.4l3.1-3.1.4-.4c.8-.6 1.8-.9 2.9-.7 1 .1 1.9.7 2.5 1.5.4.6 1.2.7 1.8.3.6-.4.7-1.2.3-1.8-1-1.4-2.5-2.3-4.2-2.5-1.8-.2-3.5.2-4.9 1.2-.3.2-.5.4-.7.6l-3.1 3.1c-2.5 2.5-2.4 6.6.2 9.1 1.2 1.2 2.9 1.8 4.5 1.8 1.5 0 3.1-.6 4.4-1.8z"/>
</svg>