<svg xmlns="http://www.w3.org/2000/svg" height="24" width="24" viewBox="0 0 24 24">
  <path fill="#334155" d="m11.931641 1.2832031-.01953.00195c-2.4350823.0521597-4.4523002.7429097-5.708986 2.2910188-1.138633 1.40268-1.5487585 3.3553206-1.3710938 5.7714843-.6101522.1687316-1.1502186.3882707-1.6289062.6816408-.8966049.549496-1.5098774 1.405666-1.8203125 2.398437C1.0723774 13.420506 1 14.546965 1 15.912109c0 1.36466.072346 2.491846.3828125 3.484375.3104662.99253.9237264 1.849113 1.8203125 2.398438C4.9962973 22.893571 7.5820836 23 11.933594 23c4.352006 0 6.937579-.106307 8.730468-1.205078.896447-.549385 1.510066-1.405943 1.820313-2.398438.310247-.992494.382811-2.119778.382813-3.484375-.000002-1.365081-.0726-2.491639-.382813-3.484375-.310216-.992736-.923848-1.848881-1.820313-2.398437-.478597-.2933935-1.01883-.5129063-1.628906-.6816408.177707-2.3846329-.177078-4.3258526-1.289062-5.7421874-1.228346-1.5645436-3.254935-2.2684067-5.792969-2.3203126Zm.002 2.0039063c2.188798.048947 3.483929.5938688 4.238281 1.5546875.663352.8449106 1.004428 2.1807834.886719 4.1542969-1.379109-.1451738-3.045509-.1718751-5.125-.171875-2.0801936 0-3.7474724.026511-5.1269534.171875-.1162859-1.9794039.2591968-3.3082242.9491718-4.1582032.7840401-.9658576 2.098955-1.5020316 4.1777346-1.5507812Z"/>
</svg>