<svg xmlns="http://www.w3.org/2000/svg" height="24" width="24" viewBox="0 0 24 24">
  <path fill="#fff" d="M23 8.6v6.8c0 5.2-2.3 7.6-7.4 7.6h-.1c-3.3 0-6.7-.6-7.3-5.1-.1-.5.3-1 .9-1.1.5-.1 1.1.3 1.1.9.3 2.2 1.2 3.4 5.3 3.4h.1c4 0 5.4-1.4 5.4-5.6V8.6C21 4.4 19.6 3 15.6 3h-.1c-4.1 0-5 1.2-5.3 3.5-.1.5-.6.9-1.2.8-.5-.1-.9-.6-.8-1.1C8.8 1.6 12 1 15.5 1h.1C20.7 1 23 3.3 23 8.6zM4.4 13h10.7c.6 0 1-.4 1-1s-.4-1-1-1H4.4l1.8-1.8c.4-.4.4-1 0-1.4-.4-.4-1-.4-1.4 0l-3.5 3.5c-.2.2-.3.4-.3.7s.1.5.3.7l3.5 3.5c.2.2.5.3.7.3.3 0 .5-.1.7-.3.4-.4.4-1 0-1.4L4.4 13z"/>
</svg>