<svg xmlns="http://www.w3.org/2000/svg" viewBox="0 0 795.07 239.72">
  <path fill="#0f172a" d="M64 5.9a202.67 202.67 0 0 0-1.59 24q-.15 13.2.16 27.31t.8 28.32q.47 14.22.47 26.9t-.87 23a70.1 70.1 0 0 1-3.1 16.72 60.69 60.69 0 0 1-5.48 11 45.57 45.57 0 0 1-7.94 9.58 32 32 0 0 1-9.93 6.22A20.86 20.86 0 0 1 25.23 180q6-6 9.22-17.06A139 139 0 0 0 39 138.35q1.35-13.62 1.35-29T40 79.1q-.33-14.88-.48-28.16a214.55 214.55 0 0 1 .79-23q-4.6 5.71-8.89 12.18a117.87 117.87 0 0 0-7.55 13.11A64.65 64.65 0 0 0 19 66.32a31.53 31.53 0 0 0-.8 12 23.94 23.94 0 0 0 1.83 6.39 11 11 0 0 0 4.21 4.87 7 7 0 0 1-2.07 4 10.28 10.28 0 0 1-5.56 2.94q-7 1.35-11.19-2.77A18.24 18.24 0 0 1 .29 82.88a38.34 38.34 0 0 1 1.19-15 74.73 74.73 0 0 1 6.44-16 111.6 111.6 0 0 1 10.16-15.56 153.09 153.09 0 0 1 12.32-14A114.85 114.85 0 0 1 43.26 11a59.45 59.45 0 0 1 12-7.14 12.1 12.1 0 0 1 6.52-1.76q2.69.28 2.22 3.8Zm731 103.87q-2.07 7.56-4.29 14.88a141.19 141.19 0 0 1-5.24 14.35q-1.9 4.36-4.21 8.57a45.74 45.74 0 0 1-5.16 7.57 25.87 25.87 0 0 1-6.36 5.46 14.26 14.26 0 0 1-7.47 2.1q-8.09.17-12.94-3.87a25.48 25.48 0 0 1-7.39-10.59 51.84 51.84 0 0 1-3.17-14.79 129.34 129.34 0 0 1-.24-16.47q.39-8.23 1.35-15.55t1.75-12.18a1.14 1.14 0 0 0-1-1.43 10.59 10.59 0 0 0-3.09-.09q-2 .18-4.53.51a22.16 22.16 0 0 1-5.4 0q-1.27 9.24-2.62 16.13c-.36 1.83-.68 3.4-1 4.75a2.83 2.83 0 0 1-.07.63c-.09.31-.18.64-.27 1-.28 1.25-.51 2.23-.69 2.91a2.57 2.57 0 0 1-.36.81l-1.54 5.49q-1.59 5.64-3.66 11.43a123.56 123.56 0 0 1-4.68 11.35 63 63 0 0 1-5.72 9.83 30.63 30.63 0 0 1-6.83 7 13.43 13.43 0 0 1-8 2.69A18.79 18.79 0 0 1 683 160a19.58 19.58 0 0 1-6.59-5.88 31.63 31.63 0 0 1-4.13-8.16 31.21 31.21 0 0 1-1.67-9 44.88 44.88 0 0 1-3.09 9.67 37.74 37.74 0 0 1-5.25 8.57 26.3 26.3 0 0 1-7.14 6.13 17.3 17.3 0 0 1-8.82 2.36 23.35 23.35 0 0 1-12.39-3.11 24.93 24.93 0 0 1-8.26-8.24 39.51 39.51 0 0 1-4.77-11.93c-.2-.87-.37-1.75-.54-2.64-.7 1.74-1.44 3.46-2.24 5.16a66.2 66.2 0 0 1-5.72 10.08 29.28 29.28 0 0 1-6.83 7.15 13.46 13.46 0 0 1-8 2.69q-7.72.17-12.38-4.54a28.88 28.88 0 0 1-6.85-11.26 55.66 55.66 0 0 1-2.06-9.67c-.09-.64-.16-1.32-.24-2-1 2.46-2 4.89-3.09 7.29a57.72 57.72 0 0 1-5.64 9.83 30.22 30.22 0 0 1-6.83 7 13.41 13.41 0 0 1-8 2.69 16.73 16.73 0 0 1-12.55-5q-5.24-5.13-7.78-14a87.49 87.49 0 0 1-2.86-16.64 104.5 104.5 0 0 1-4.29 13.2 64.41 64.41 0 0 1-5.75 11.25 34.84 34.84 0 0 1-6.83 7.9 13.67 13.67 0 0 1-7.62 3.36q-7.16.51-11.92-2.1a18.49 18.49 0 0 1-7.54-7.9 39.72 39.72 0 0 1-3.89-12.69c-.37-2.41-.64-5-.82-7.63-.73 1.13-1.48 2.26-2.28 3.35a76.93 76.93 0 0 1-9.13 10.25q-5.25 5-12.39 10.51 0 8.06-.56 17.31a171.38 171.38 0 0 1-2.14 18.49 119.1 119.1 0 0 1-4.45 17.73 57 57 0 0 1-7.67 15.08 38.79 38.79 0 0 1-11.59 10.75 31.9 31.9 0 0 1-16.2 4.29q-10 .33-16.37-4.2a24.45 24.45 0 0 1-9-11.77 31.34 31.34 0 0 1-1.27-15.8 36.78 36.78 0 0 1 7.07-16.3 42.42 42.42 0 0 1 8.42-8.74q4.92-3.87 10.4-7.4t11.12-6.89q5.64-3.36 10.72-7.06.48-12.27.48-23a46.91 46.91 0 0 1-3.26 9.24 36.37 36.37 0 0 1-5.16 8.07 25.39 25.39 0 0 1-6.91 5.71 17.36 17.36 0 0 1-8.66 2.19 25.24 25.24 0 0 1-12.55-3 26.45 26.45 0 0 1-9-8.23 39 39 0 0 1-5.4-11.94c-.25-.91-.46-1.84-.66-2.77q-1 2.51-2.2 5a62.17 62.17 0 0 1-5.72 9.83 30.22 30.22 0 0 1-6.83 7 13.41 13.41 0 0 1-8 2.69 18.72 18.72 0 0 1-9.13-2.33 19.61 19.61 0 0 1-6.6-5.88 32 32 0 0 1-4.13-8.16 31.56 31.56 0 0 1-1.67-9 44.33 44.33 0 0 1-3.09 9.67 38.07 38.07 0 0 1-5.24 8.57 26.34 26.34 0 0 1-7.15 6.13 17.24 17.24 0 0 1-8.82 2.36 23.35 23.35 0 0 1-12.39-3.11 24.93 24.93 0 0 1-8.26-8.24 39.24 39.24 0 0 1-4.76-11.93c-.2-.85-.37-1.71-.53-2.57-.69 1.71-1.42 3.41-2.17 5.09a63.6 63.6 0 0 1-5.64 10.08 31 31 0 0 1-6.83 7.23 13.18 13.18 0 0 1-8 2.77q-7.78 0-12.47-4.7a28.9 28.9 0 0 1-6.91-11.1 75.28 75.28 0 0 1-3.1-17.14v-.31c-.63.79-1.3 1.57-2 2.33a32.93 32.93 0 0 1-7.39 5.54 31.24 31.24 0 0 1-6 2.69 29 29 0 0 1-11.2 17q-8.49 6.22-21.52 6.22a26.62 26.62 0 0 1-11.95-2.54 27 27 0 0 1-8.58-6.39 27.56 27.56 0 0 1-5.16-8.4c-.14-.36-.24-.71-.36-1.06-.53 1.09-1.06 2.17-1.63 3.24a40.86 40.86 0 0 1-4.76 7.14 28.22 28.22 0 0 1-5.72 5.22 13.1 13.1 0 0 1-6.91 2.26q-7.32.51-12.16-2.77a24.64 24.64 0 0 1-7.86-8.82A43.27 43.27 0 0 1 127 138.6a114.14 114.14 0 0 1-1.74-14.71 126.12 126.12 0 0 1 0-14.29q.39-6.88.87-11.76a11.48 11.48 0 0 0 .08-3.53 2 2 0 0 0-1.51-1.85q-1.28-.17-3.1 2.86a52.72 52.72 0 0 0-3.81 8.15c-1.32 3.42-2.68 7.37-4.05 11.85s-2.73 9.13-4 14-2.57 9.58-3.73 14.29-2.18 9-3 12.77a27.14 27.14 0 0 1-1 3.45 4.31 4.31 0 0 1-1.35 1.93 4 4 0 0 1-2.23.76c-.9.05-2.09.08-3.57.08a13.62 13.62 0 0 1-5.88-1.35 16.75 16.75 0 0 1-5.16-3.78 18.91 18.91 0 0 1-3.74-6 21.94 21.94 0 0 1-1.43-8.24v-65a5.18 5.18 0 0 1 3.42-5A15.53 15.53 0 0 1 89.64 72a17 17 0 0 1 7.63 2.44 6.36 6.36 0 0 1 3.41 5.56v44.4a222 222 0 0 1 7.32-23.62 140.15 140.15 0 0 1 10.33-21.6 24.25 24.25 0 0 1 5.55-6.18 22.48 22.48 0 0 1 4.13-2.6 10.26 10.26 0 0 1 4.6-1.09c3.6-.12 6.41.36 8.42 1.42a10.1 10.1 0 0 1 4.45 4.46 18.48 18.48 0 0 1 1.75 6.72c.21 2.58.31 5.32.31 8.24 0 1.23 0 3.53-.08 6.89s-.05 7.23 0 11.6.19 8.91.4 13.61a127.54 127.54 0 0 0 1.19 12.94 43.51 43.51 0 0 0 2.39 9.67c1 2.52 2.3 3.73 3.89 3.61q1.9-.17 4-2.77a31.9 31.9 0 0 0 4.05-6.64q1.9-4 3.73-8.82t3.26-9.17c1-2.91 1.75-5.46 2.38-7.64.38-1.29.68-2.33.9-3.14a2.81 2.81 0 0 1 .05-.81c.64-2.36 1.3-5 2-7.82s1.4-5.74 2.14-8.66 1.49-5.79 2.23-8.65 1.43-5.46 2.06-7.82a34 34 0 0 1 2.07-6 18.74 18.74 0 0 1 3.17-4.88 13.15 13.15 0 0 1 4.77-3.28A18 18 0 0 1 199 61.2a19 19 0 0 1 10.32 2.69c2.87 1.79 4.24 3.86 4.14 6.22q-2.24 3.36-3.66 5.29c-.95 1.29-1.75 2.33-2.38 3.11s-1.24 1.49-1.82 2.19-1.24 1.51-2 2.52a13.8 13.8 0 0 0 2.7 6.22q2.22 3 5.16 6.3t6.2 6.89a67.29 67.29 0 0 1 6 7.82 43.82 43.82 0 0 1 4.61 9.24 32.54 32.54 0 0 1 1.82 11.09 5.87 5.87 0 0 1 .56-.25 4.1 4.1 0 0 0 .56-.25 22.16 22.16 0 0 0 9.05-9.08 62.62 62.62 0 0 0 3.38-8.28v-5.67q0-11.43.55-23.19t1.51-22.86l-14.76-.2c-1 0-1.62-.59-2-1.77a9.4 9.4 0 0 1-.32-3.86 10.55 10.55 0 0 1 1.2-3.87 2.85 2.85 0 0 1 2.54-1.76l14.29.17c.32-3.37.66-6.53 1-9.5s.71-5.69 1-8.15a7.58 7.58 0 0 1 3.89-5.88 15.41 15.41 0 0 1 7.31-2.19 11.91 11.91 0 0 1 7.15 1.88 6.86 6.86 0 0 1 3.17 6.22q-.63 4.37-1.19 8.82t-1 9h16a2.47 2.47 0 0 1 2.54 1.77 8.39 8.39 0 0 1 .4 3.87 9.73 9.73 0 0 1-1.27 3.86 3 3 0 0 1-2.65 1.76h-16q-1.12 12.09-1.59 24.2t-.64 23.87q0 6.89.32 13.69t1.11 12.28a37.43 37.43 0 0 0 2.23 8.9q1.43 3.45 3.81 3.79c1.37.22 2.94-1.1 4.68-3.95a79.49 79.49 0 0 0 5.25-10.51q2.61-6.21 4.84-13c.69-2.12 1.33-4.09 1.91-5.94q.39-4 1.11-8.09a64 64 0 0 1 5.79-17.73 39.67 39.67 0 0 1 10.57-13.2 30 30 0 0 1 15.88-6.22 22.92 22.92 0 0 1 10.49 1.43 13.36 13.36 0 0 1 7.14 6 1.35 1.35 0 0 0 .16-.84c.11-1.35 1.3-2.35 3.58-3a22.65 22.65 0 0 1 7.38-.84 20.15 20.15 0 0 1 7.23 1.6c2.17 1 3.26 2.33 3.26 4.12 0 1.34-.14 3.92-.4 7.73s-.53 8.26-.79 13.36-.43 10.42-.48 16 .13 10.7.56 15.46a61.65 61.65 0 0 0 2.06 11.94q1.43 4.78 4.29 5.12 2.07.35 4.69-3.86a79.39 79.39 0 0 0 5.24-10.26q2.63-6 4.84-12.77c.76-2.28 1.44-4.4 2.06-6.36.3-2.5.69-5 1.2-7.51a60.27 60.27 0 0 1 6.43-17.73 43.61 43.61 0 0 1 11.28-13.19 31.38 31.38 0 0 1 16.2-6.31A22.45 22.45 0 0 1 429 70.86a14.11 14.11 0 0 1 7.3 6 .88.88 0 0 1 .08-.34 1.11 1.11 0 0 0 .08-.5c.11-1.35 1.28-2.35 3.5-3a22 22 0 0 1 7.31-.84 20.14 20.14 0 0 1 7.22 1.6c2.17 1 3.26 2.33 3.26 4.12 0 .9-.08 2.49-.24 4.79s-.32 5-.48 8.15-.34 6.61-.55 10.42-.32 7.62-.32 11.43q0 7.07.24 15.3t.4 17.31q4.76-4 8.65-7.9a63.73 63.73 0 0 0 6.91-8.07 58.48 58.48 0 0 0 5.33-9.08 63.75 63.75 0 0 0 2.7-6.86q.1-5.88.31-12.3.39-11.93 1.51-25c.1-1.46 1.35-2.52 3.73-3.2a24.72 24.72 0 0 1 7.71-.84 20.66 20.66 0 0 1 7.54 1.69c2.28 1 3.42 2.41 3.42 4.2 0 1.34-.22 4-.64 7.9s-.82 8.49-1.19 13.7-.66 10.61-.87 16.22-.19 10.7.08 15.29a41.71 41.71 0 0 0 1.9 11.18q1.51 4.29 4.53 3.61 2.7-.5 5.24-5.12a73 73 0 0 0 4.85-11.35q2.29-6.72 4.29-15t3.65-16.13q1.66-7.91 2.78-14.54t1.59-10.51c0-.89.58-1.65 1.75-2.27a14.11 14.11 0 0 1 4.2-1.34 27.52 27.52 0 0 1 5.33-.34 19.48 19.48 0 0 1 5.24.84 12.44 12.44 0 0 1 4 2 3.83 3.83 0 0 1 1.59 3.11q0 1.84-.48 7.9t-.87 14q-.41 7.91-.56 16.55t.4 16.06a64.09 64.09 0 0 0 2 12.43c1 3.37 2.33 5.16 4.13 5.38 1 .12 2-.44 3.1-1.68a26.27 26.27 0 0 0 3.42-5.12c1.16-2.19 2.32-4.65 3.49-7.4s2.28-5.55 3.34-8.4 2-5.69 2.86-8.49l1-3.24v-3.82q0-8.07.16-16.14t.55-15.88q.4-7.81.88-14.71 1.26-16.47 3.07-30.08c1.21-9.08 2.41-15.94 3.86-20.51 4.64-14.55 18.29-14.25 23.25-7.4a39.7 39.7 0 0 1 7.31 20.26 78.31 78.31 0 0 1-1.36 22.44 103.93 103.93 0 0 1-6.9 21.59 114.69 114.69 0 0 1-9.38 17.4c-.21 3.25-.39 7-.55 11.26s-.23 8.66-.23 13.2.1 9 .31 13.36a101.72 101.72 0 0 0 1.19 11.77 38.61 38.61 0 0 0 2.3 8.57q1.43 3.36 3.66 3.7 2.06.33 4.68-3.95a78.33 78.33 0 0 0 5.24-10.51q2.63-6.21 4.85-13 1.17-3.6 2.13-6.66.39-3.69 1-7.37a64 64 0 0 1 5.8-17.73 39.54 39.54 0 0 1 10.57-13.2A30 30 0 0 1 653 69.43a22.88 22.88 0 0 1 10.48 1.43 13.38 13.38 0 0 1 7.15 6 1.35 1.35 0 0 0 .16-.84c.1-1.35 1.3-2.35 3.58-3a22.62 22.62 0 0 1 7.38-.84 20.15 20.15 0 0 1 7.23 1.6c2.17 1 3.26 2.33 3.26 4.12 0 1.34-.14 3.92-.4 7.73s-.53 8.26-.8 13.36-.42 10.42-.47 16 .13 10.7.55 15.46a62.35 62.35 0 0 0 2.07 11.94q1.43 4.78 4.29 5.12c1.37.23 2.94-1.06 4.68-3.86a76.94 76.94 0 0 0 5.24-10.26q2.63-6 4.85-12.77 1.9-5.75 3.22-10.14c.23-1 .56-2.54 1-4.57.58-2.74 1.13-5.6 1.67-8.57s1-5.63 1.27-8a15.77 15.77 0 0 0 .31-3.7 14.21 14.21 0 0 1-3.41-2.19 16 16 0 0 1-5.4-8.82 17.29 17.29 0 0 1-.24-6.47 16.14 16.14 0 0 1 3.18-8.24 12.27 12.27 0 0 1 5.48-4.2 7.3 7.3 0 0 1 5.64.25c1.8.84 3 2.55 3.65 5.13a32.29 32.29 0 0 1 .95 7.81 58.28 58.28 0 0 1-.63 8.32 30.11 30.11 0 0 0 6.91-.08 47.17 47.17 0 0 0 4.84-1c1.48-.39 3-.81 4.61-1.26a28.36 28.36 0 0 1 6.19-.84q7.15-.16 9.77 4.54t1.51 13.61q-.79 7.06-1.35 14t-.63 13.27q-.09 6.39.31 12a51.17 51.17 0 0 0 1.67 10.17 10.92 10.92 0 0 0 2.31 4.71 3.39 3.39 0 0 0 2.86 1.17 5.84 5.84 0 0 0 3.17-1.68 17.23 17.23 0 0 0 3.1-3.86 69.22 69.22 0 0 0 4.37-8.83c1.43-3.41 2.72-6.78 3.89-10.08s2.14-6.25 2.94-8.83 1.29-4.31 1.51-5.21a3.31 3.31 0 0 1 1.9-2.43 5.21 5.21 0 0 1 2.94-.34 4.91 4.91 0 0 1 2.54 1.18 2.37 2.37 0 0 1 .7 2.33ZM596.76 71.62a88.36 88.36 0 0 0 6.91-25.21 66.45 66.45 0 0 0-1.35-25q-1.76 11.6-3.26 24.37t-2.3 25.84Zm-389.65 67.9q-7.31-1.34-12.23-2.1a54.39 54.39 0 0 0-7.62-.75 10.11 10.11 0 0 0-3.26.42c-.79.28-1.19 1.2-1.19 2.77a9.22 9.22 0 0 0 .79 3.45 13.47 13.47 0 0 0 2.15 3.53 11.83 11.83 0 0 0 3.25 2.68 7.06 7.06 0 0 0 4.13.93A13.9 13.9 0 0 0 202 147a20.09 20.09 0 0 0 5.11-7.48Zm1.11-9.24a23 23 0 0 0-2.86-9.83 99.69 99.69 0 0 0-5.79-9.25c-2.18-3.08-4.37-6.3-6.6-9.66a39.32 39.32 0 0 1-5.08-11.43q-1.75 4.71-3.26 10.08c-.79 2.84-1.62 5.68-2.45 8.52a2.37 2.37 0 0 1 0 1.06q-2.05 7.56-4.21 15.47c-.13.48-.28 1-.41 1.42a20.08 20.08 0 0 1 3.51-.42 59 59 0 0 1 12.55 1.18q6.98 1.35 14.6 2.86Zm130.41-43a20.11 20.11 0 0 0-1.42-2.44 15.63 15.63 0 0 0-2.31-2.69 11.88 11.88 0 0 0-3.18-2.1 7.86 7.86 0 0 0-4.36-.5q-3.83.49-6.83 5.8a57 57 0 0 0-5.17 13 117 117 0 0 0-3.89 33.37 45.68 45.68 0 0 0 2.07 12.77q1.74 5.13 5.24 5.3a8 8 0 0 0 6.43-2.86 26.83 26.83 0 0 0 4.85-8.15 68.77 68.77 0 0 0 3.41-11.68q1.35-6.56 2.38-13.62t1.67-13.87c.42-4.54.8-8.61 1.11-12.36ZM433 95.82a36.87 36.87 0 0 0-.48-6 18.89 18.89 0 0 0-1.52-5.09 8.71 8.71 0 0 0-2.78-3.45 6.66 6.66 0 0 0-4.44-1.09q-3.82.34-6.91 5.46a51.56 51.56 0 0 0-5.25 12.86 102.88 102.88 0 0 0-3.09 16.64 112 112 0 0 0-.64 16.56 45.68 45.68 0 0 0 2.11 12.77q1.74 5.13 5.24 5.3a7.52 7.52 0 0 0 6.19-2.94 28.56 28.56 0 0 0 4.69-8.07 72.54 72.54 0 0 0 3.34-11.1q1.33-6.14 2.14-12.18t1.11-11.26q.29-5.23.29-8.41Zm2.06 76.31c-2.85 2.24-5.85 4.4-9 6.47s-6.14 4.18-9.05 6.3a101.78 101.78 0 0 0-8.18 6.64 33.81 33.81 0 0 0-6.36 7.65 25.42 25.42 0 0 0-4.19 10.81 17.55 17.55 0 0 0 1 8.82 12.86 12.86 0 0 0 4.77 5.89 11.75 11.75 0 0 0 7.15 1.93 14.17 14.17 0 0 0 8.34-3.36 26.17 26.17 0 0 0 6.11-7.82 54.42 54.42 0 0 0 4.21-10.67 117.14 117.14 0 0 0 2.7-11.85q1-6 1.59-11.43t.9-9.38Zm234.3-84.88a20.38 20.38 0 0 0-1.43-2.44 15.14 15.14 0 0 0-2.3-2.69 11.88 11.88 0 0 0-3.18-2.1 7.9 7.9 0 0 0-4.37-.5q-3.81.49-6.83 5.8a57.49 57.49 0 0 0-5.16 13 109.44 109.44 0 0 0-3.18 16.73 107.34 107.34 0 0 0-.71 16.64 46.08 46.08 0 0 0 2.06 12.77q1.75 5.13 5.24 5.3a8 8 0 0 0 6.44-2.86 26.62 26.62 0 0 0 4.84-8.15 67.84 67.84 0 0 0 3.42-11.68q1.35-6.56 2.38-13.62t1.67-13.87q.62-6.77 1.1-12.33Z"/>
</svg>