<svg xmlns="http://www.w3.org/2000/svg" viewBox="0 0 1054.59 239.72">
  <defs>
    <radialGradient id="b" cx="887.52" cy="420.99" r="23.28" gradientTransform="matrix(0 -8.13 7.57 0 -3134.21 7423.01)" gradientUnits="userSpaceOnUse">
      <stop offset="0" stop-color="#fd5"/>
      <stop offset=".1" stop-color="#fd5"/>
      <stop offset=".17" stop-color="#ffd454"/>
      <stop offset=".27" stop-color="#ffbc51"/>
      <stop offset=".41" stop-color="#ff944d"/>
      <stop offset=".56" stop-color="#ff5e47"/>
      <stop offset=".6" stop-color="#ff5046"/>
      <stop offset=".72" stop-color="#e9403a"/>
      <stop offset=".9" stop-color="#d12f2d"/>
      <stop offset="1" stop-color="#c82828"/>
    </radialGradient>
    <radialGradient id="c" cx="742.43" cy="522.73" r="41.67" gradientTransform="matrix(.71 3.56 -111.55 22.34 57695.03 -14350.88)" gradientUnits="userSpaceOnUse">
      <stop offset="0" stop-color="#c80050"/>
      <stop offset=".13" stop-color="#c80050"/>
      <stop offset=".98" stop-color="#66005e" stop-opacity="0"/>
    </radialGradient>
    <mask id="a" width="191.04" height="191.04" x="0" y="0" maskUnits="userSpaceOnUse">
      <path fill="#fff" d="M95.52 191c-38.8 0-60.56-5.92-75.08-20.44S0 134.33 0 95.52 5.92 35 20.44 20.44 56.72 0 95.52 0s60.56 5.92 75.08 20.44S191 56.71 191 95.52s-5.92 60.56-20.44 75.08S134.33 191 95.52 191Zm0-169C63.61 22 45.81 26.19 36 36S22 63.61 22 95.52s4.19 49.71 14 59.48 27.61 14 59.52 14 49.71-4.18 59.52-14 14-27.61 14-59.52S164.86 45.81 155 36s-27.57-14-59.48-14Zm0 125A51.5 51.5 0 1 1 147 95.52 51.55 51.55 0 0 1 95.52 147Zm0-81A29.5 29.5 0 1 0 125 95.52 29.54 29.54 0 0 0 95.52 66Z"/>
    </mask>
  </defs>
  <path fill="#f8fafc" d="M323.51 5.9a202.67 202.67 0 0 0-1.59 24q-.17 13.2.16 27.31t.79 28.32q.48 14.22.48 26.9t-.87 23a70.61 70.61 0 0 1-3.1 16.72 61.35 61.35 0 0 1-5.48 11 45.57 45.57 0 0 1-7.94 9.58 32 32 0 0 1-9.93 6.22 20.86 20.86 0 0 1-11.28 1.05q6-6 9.21-17.06a138.08 138.08 0 0 0 4.53-24.62q1.35-13.62 1.35-29t-.32-30.25q-.31-14.88-.47-28.16a214.55 214.55 0 0 1 .79-23q-4.6 5.71-8.89 12.18a117.87 117.87 0 0 0-7.55 13.11 64.65 64.65 0 0 0-4.84 13.11 31.53 31.53 0 0 0-.8 12 23.94 23.94 0 0 0 1.83 6.39 11 11 0 0 0 4.21 4.87 7 7 0 0 1-2.07 4 10.28 10.28 0 0 1-5.56 2.94q-7 1.35-11.2-2.77a18.28 18.28 0 0 1-5.16-10.84 38.15 38.15 0 0 1 1.19-15 74.73 74.73 0 0 1 6.44-16 110.7 110.7 0 0 1 10.16-15.58 154.53 154.53 0 0 1 12.31-14A115.81 115.81 0 0 1 302.78 11a59.45 59.45 0 0 1 12-7.14 12.06 12.06 0 0 1 6.52-1.76q2.7.28 2.21 3.8Zm731 103.87q-2.07 7.56-4.29 14.88A143.63 143.63 0 0 1 1045 139q-1.9 4.36-4.21 8.57a45.18 45.18 0 0 1-5.17 7.57 25.65 25.65 0 0 1-6.35 5.46 14.26 14.26 0 0 1-7.47 2.1q-8.1.17-12.94-3.87a25.39 25.39 0 0 1-7.39-10.59 51.84 51.84 0 0 1-3.17-14.79 129.34 129.34 0 0 1-.24-16.47q.39-8.23 1.35-15.55t1.74-12.18a1.13 1.13 0 0 0-.95-1.43 10.64 10.64 0 0 0-3.1-.09c-1.32.12-2.83.29-4.52.51a22.16 22.16 0 0 1-5.4 0q-1.27 9.24-2.63 16.13c-.35 1.83-.67 3.4-.95 4.75a2.37 2.37 0 0 1-.08.63c-.08.31-.18.64-.27 1-.27 1.25-.5 2.23-.68 2.91a2.57 2.57 0 0 1-.36.81c-.49 1.73-1 3.56-1.55 5.49q-1.59 5.64-3.65 11.43t-4.69 11.35a62.15 62.15 0 0 1-5.71 9.83 30.63 30.63 0 0 1-6.83 7 13.44 13.44 0 0 1-8 2.69 18.77 18.77 0 0 1-9.21-2.18 19.58 19.58 0 0 1-6.59-5.88 32.21 32.21 0 0 1-5.8-17.15 44.92 44.92 0 0 1-3.1 9.67 37.71 37.71 0 0 1-5.24 8.57 26.2 26.2 0 0 1-7.15 6.13 17.23 17.23 0 0 1-8.81 2.36 23.32 23.32 0 0 1-12.39-3.11 24.84 24.84 0 0 1-8.26-8.24 39.51 39.51 0 0 1-4.77-11.93c-.2-.87-.37-1.75-.54-2.64-.7 1.74-1.44 3.46-2.24 5.16a66.2 66.2 0 0 1-5.72 10.08 29.28 29.28 0 0 1-6.83 7.15 13.48 13.48 0 0 1-8 2.69q-7.74.17-12.38-4.54a28.9 28.9 0 0 1-6.86-11.26 56.7 56.7 0 0 1-2.05-9.67c-.09-.64-.17-1.32-.25-2-1 2.46-2 4.89-3.08 7.29a57.72 57.72 0 0 1-5.64 9.83 30.22 30.22 0 0 1-6.83 7 13.41 13.41 0 0 1-8 2.69 16.73 16.73 0 0 1-12.55-5q-5.24-5.13-7.78-14a87.49 87.49 0 0 1-2.86-16.64 104.5 104.5 0 0 1-4.29 13.2 65.12 65.12 0 0 1-5.8 11.16 35.09 35.09 0 0 1-6.83 7.9 13.67 13.67 0 0 1-7.62 3.36q-7.15.51-11.92-2.1a18.43 18.43 0 0 1-7.54-7.9 39.72 39.72 0 0 1-3.9-12.69c-.36-2.41-.63-5-.81-7.63-.73 1.13-1.48 2.26-2.28 3.35a76.93 76.93 0 0 1-9.13 10.25q-5.25 5-12.4 10.51 0 8.06-.55 17.31a171.38 171.38 0 0 1-2.14 18.49 119.1 119.1 0 0 1-4.45 17.73 57 57 0 0 1-7.63 15.13 38.79 38.79 0 0 1-11.56 10.7 31.91 31.91 0 0 1-16.21 4.29q-10 .33-16.36-4.2a24.45 24.45 0 0 1-9-11.77 31.34 31.34 0 0 1-1.27-15.8 36.78 36.78 0 0 1 7.07-16.3 42.37 42.37 0 0 1 8.41-8.74q4.93-3.87 10.41-7.4t11.12-6.89q5.64-3.36 10.72-7.06.48-12.27.48-23a47.56 47.56 0 0 1-3.26 9.24 36.37 36.37 0 0 1-5.16 8.07 25.54 25.54 0 0 1-6.91 5.71 17.36 17.36 0 0 1-8.66 2.19 25.24 25.24 0 0 1-12.55-3 26.45 26.45 0 0 1-9-8.23 38.74 38.74 0 0 1-5.4-11.94c-.25-.91-.46-1.84-.66-2.77q-1 2.51-2.2 5a62.17 62.17 0 0 1-5.72 9.83 30.42 30.42 0 0 1-6.83 7 13.41 13.41 0 0 1-8 2.69 18.79 18.79 0 0 1-9.22-2.18 19.67 19.67 0 0 1-6.59-5.88 31.63 31.63 0 0 1-4.13-8.16 31.21 31.21 0 0 1-1.67-9 44.33 44.33 0 0 1-3.09 9.67 37.74 37.74 0 0 1-5.25 8.57 26.16 26.16 0 0 1-7.14 6.13 17.24 17.24 0 0 1-8.82 2.36 23.35 23.35 0 0 1-12.39-3.11 24.93 24.93 0 0 1-8.26-8.24 39.51 39.51 0 0 1-4.77-11.93c-.19-.85-.36-1.71-.52-2.57q-1 2.56-2.17 5.09a63.6 63.6 0 0 1-5.64 10.08 31 31 0 0 1-6.83 7.23 13.21 13.21 0 0 1-8 2.77q-7.78 0-12.46-4.7a29 29 0 0 1-6.92-11.1 75.89 75.89 0 0 1-3.15-17.25v-.31c-.63.79-1.3 1.57-2 2.33a32.63 32.63 0 0 1-7.38 5.54 31.24 31.24 0 0 1-6 2.69 29 29 0 0 1-11.2 17q-8.49 6.22-21.52 6.22A26.66 26.66 0 0 1 444 161a27.05 27.05 0 0 1-8.57-6.39 27.79 27.79 0 0 1-5.17-8.4c-.13-.36-.23-.71-.36-1.06-.52 1.09-1.05 2.17-1.62 3.24a40.34 40.34 0 0 1-4.77 7.14 27.92 27.92 0 0 1-5.71 5.22 13.1 13.1 0 0 1-6.91 2.26q-7.32.51-12.16-2.77a24.64 24.64 0 0 1-7.86-8.82 43.27 43.27 0 0 1-4.37-12.86 116 116 0 0 1-1.75-14.71 131 131 0 0 1 0-14.29q.4-6.88.88-11.76a11.48 11.48 0 0 0 .08-3.53 2 2 0 0 0-1.51-1.85q-1.28-.17-3.1 2.86a52.72 52.72 0 0 0-3.81 8.15q-2 5.13-4 11.85t-4.05 14q-2 7.23-3.74 14.29t-3 12.77a25.35 25.35 0 0 1-1 3.45 4.23 4.23 0 0 1-1.35 1.93 4 4 0 0 1-2.22.76c-.9.05-2.09.08-3.57.08a13.59 13.59 0 0 1-5.88-1.35 16.75 16.75 0 0 1-5.16-3.78 18.91 18.91 0 0 1-3.74-6 21.94 21.94 0 0 1-1.43-8.24v-65a5.18 5.18 0 0 1 3.42-5 15.51 15.51 0 0 1 7.59-1.19 17 17 0 0 1 7.63 2.44A6.38 6.38 0 0 1 360.2 80v44.4a219.69 219.69 0 0 1 7.31-23.62 140.09 140.09 0 0 1 10.32-21.6 23.21 23.21 0 0 1 2.23-3 23.66 23.66 0 0 1 3.33-3.2 23.18 23.18 0 0 1 4.13-2.6 10.34 10.34 0 0 1 4.61-1.09c3.6-.12 6.41.36 8.42 1.42a10.15 10.15 0 0 1 4.45 4.44 18.48 18.48 0 0 1 1.75 6.72c.21 2.58.31 5.32.31 8.24 0 1.23 0 3.53-.08 6.89s-.05 7.23 0 11.6.19 8.91.4 13.61a127.54 127.54 0 0 0 1.19 12.94 43.51 43.51 0 0 0 2.39 9.67c1 2.52 2.3 3.73 3.89 3.61q1.9-.17 4-2.77A31.9 31.9 0 0 0 423 139q1.91-4 3.73-8.82t3.26-9.17q1.43-4.36 2.38-7.64c.38-1.29.67-2.33.9-3.14a2.49 2.49 0 0 1 0-.81c.64-2.36 1.3-5 2-7.82s1.4-5.74 2.14-8.66 1.48-5.79 2.23-8.65 1.43-5.46 2.06-7.82a34 34 0 0 1 2.07-6 18.74 18.74 0 0 1 3.17-4.88 13.07 13.07 0 0 1 4.77-3.28 18 18 0 0 1 6.83-1.17 19.06 19.06 0 0 1 10.32 2.69q4.29 2.69 4.13 6.22-2.22 3.36-3.65 5.29c-.95 1.29-1.75 2.33-2.38 3.11s-1.26 1.55-1.84 2.25-1.24 1.51-2 2.52a13.8 13.8 0 0 0 2.7 6.22q2.22 3 5.16 6.3l6.19 6.89a66.28 66.28 0 0 1 6 7.82 43.82 43.82 0 0 1 4.61 9.24 32.54 32.54 0 0 1 1.82 11.09 4.93 4.93 0 0 1 .56-.25 3.56 3.56 0 0 0 .55-.25 22.13 22.13 0 0 0 9.06-9.08 62.62 62.62 0 0 0 3.38-8.28v-5.67q0-11.43.56-23.19t1.51-22.86l-14.76-.2c-1 0-1.62-.59-2-1.77a9.23 9.23 0 0 1-.32-3.86 10.73 10.73 0 0 1 1.19-3.87 2.88 2.88 0 0 1 2.55-1.76l14.29.17c.32-3.37.66-6.53 1-9.5s.72-5.69 1-8.15a7.58 7.58 0 0 1 3.89-5.88 15.37 15.37 0 0 1 7.31-2.19 11.88 11.88 0 0 1 7.06 1.85 6.85 6.85 0 0 1 3.18 6.22q-.63 4.37-1.19 8.82t-1 9h16a2.47 2.47 0 0 1 2.54 1.77 8.39 8.39 0 0 1 .4 3.87 9.73 9.73 0 0 1-1.27 3.86 3 3 0 0 1-2.62 1.77h-16q-1.11 12.09-1.58 24.2t-.64 23.87q0 6.89.32 13.69t1.11 12.28a38 38 0 0 0 2.22 8.9q1.44 3.45 3.82 3.79c1.37.22 2.94-1.1 4.68-3.95a78.33 78.33 0 0 0 5.24-10.51q2.63-6.21 4.85-13c.69-2.12 1.33-4.09 1.9-5.94.27-2.7.63-5.4 1.12-8.09a63.66 63.66 0 0 1 5.79-17.73 39.54 39.54 0 0 1 10.57-13.2 30 30 0 0 1 15.88-6.22 22.92 22.92 0 0 1 10.49 1.43 13.36 13.36 0 0 1 7.14 6 1.35 1.35 0 0 0 .16-.84c.11-1.35 1.3-2.35 3.58-3a22.62 22.62 0 0 1 7.38-.84 20.15 20.15 0 0 1 7.23 1.6c2.17 1 3.26 2.33 3.26 4.12 0 1.34-.14 3.92-.4 7.73s-.53 8.26-.79 13.36-.43 10.42-.48 16 .13 10.7.56 15.46A61.65 61.65 0 0 0 622 142.3q1.42 4.78 4.29 5.12c1.37.23 2.94-1.06 4.68-3.86a78.09 78.09 0 0 0 5.25-10.26q2.63-6 4.84-12.77c.76-2.28 1.44-4.4 2.06-6.36.29-2.5.69-5 1.2-7.51a60.27 60.27 0 0 1 6.43-17.73A43.47 43.47 0 0 1 662 75.74a31.38 31.38 0 0 1 16.2-6.31 22.45 22.45 0 0 1 10.33 1.43 14.11 14.11 0 0 1 7.3 6 .88.88 0 0 1 .08-.34A1.11 1.11 0 0 0 696 76c.11-1.35 1.27-2.35 3.5-3a22 22 0 0 1 7.3-.84 20.15 20.15 0 0 1 7.23 1.6c2.17 1 3.26 2.33 3.26 4.12 0 .9-.08 2.49-.24 4.79s-.32 5-.48 8.15-.34 6.61-.55 10.42-.32 7.62-.32 11.43q0 7.07.24 15.3t.39 17.31q4.77-4 8.66-7.9a63.73 63.73 0 0 0 6.91-8.07 57.65 57.65 0 0 0 5.32-9.08 61.7 61.7 0 0 0 2.71-6.86q.09-5.88.31-12.3.39-11.93 1.51-25c.1-1.46 1.35-2.52 3.73-3.2a24.72 24.72 0 0 1 7.71-.84 20.66 20.66 0 0 1 7.54 1.69c2.28 1 3.42 2.41 3.42 4.2 0 1.34-.22 4-.64 7.9s-.82 8.49-1.19 13.7-.66 10.61-.87 16.22-.19 10.7.08 15.29a41.32 41.32 0 0 0 1.9 11.18q1.52 4.29 4.53 3.61 2.7-.5 5.24-5.12a74 74 0 0 0 4.85-11.35q2.3-6.72 4.28-15T786 98.18q1.66-7.91 2.78-14.54t1.59-10.51c0-.89.58-1.65 1.74-2.27a14.27 14.27 0 0 1 4.21-1.34 27.42 27.42 0 0 1 5.32-.34 19.49 19.49 0 0 1 5.25.84 12.55 12.55 0 0 1 4 2 3.86 3.86 0 0 1 1.59 3.11q0 1.84-.48 7.9t-.87 14q-.4 7.91-.56 16.55t.4 16.06a64.09 64.09 0 0 0 2 12.43c1 3.37 2.33 5.16 4.13 5.38 1 .12 2-.44 3.1-1.68a26.27 26.27 0 0 0 3.42-5.12c1.16-2.19 2.32-4.65 3.49-7.4s2.28-5.55 3.34-8.4 2-5.69 2.86-8.49l1-3.24v-3.82q0-8.07.16-16.14t.55-15.88q.4-7.81.88-14.71 1.26-16.47 3.07-30.08c1.2-9.08 2.4-15.94 3.86-20.51C847.36-2.6 861-2.3 866 4.55a39.59 39.59 0 0 1 7.3 20.26 78 78 0 0 1-1.35 22.44A104 104 0 0 1 865 68.84a113.84 113.84 0 0 1-9.37 17.4c-.21 3.25-.39 7-.55 11.26s-.23 8.66-.23 13.2.1 9 .31 13.36a101.72 101.72 0 0 0 1.19 11.77 38.61 38.61 0 0 0 2.3 8.57q1.43 3.36 3.65 3.7 2.07.33 4.69-3.95a79.55 79.55 0 0 0 5.24-10.51q2.63-6.21 4.85-13 1.17-3.6 2.13-6.66c.26-2.46.6-4.92 1-7.37a64 64 0 0 1 5.8-17.73 39.64 39.64 0 0 1 10.56-13.2 30 30 0 0 1 15.89-6.22 22.88 22.88 0 0 1 10.54 1.4 13.38 13.38 0 0 1 7.15 6 1.35 1.35 0 0 0 .16-.84c.1-1.35 1.29-2.35 3.57-3a22.71 22.71 0 0 1 7.39-.84 20.15 20.15 0 0 1 7.23 1.6c2.17 1 3.25 2.33 3.25 4.12q0 2-.39 7.73t-.8 13.36q-.39 7.65-.47 16t.55 15.46a60.82 60.82 0 0 0 2.07 11.94q1.42 4.78 4.29 5.12 2.06.35 4.68-3.86a76.94 76.94 0 0 0 5.24-10.26q2.63-6 4.85-12.77 1.9-5.75 3.22-10.14c.23-1 .56-2.54 1-4.57q.87-4.11 1.66-8.57t1.28-8a15.77 15.77 0 0 0 .31-3.7 14 14 0 0 1-3.41-2.19 16 16 0 0 1-5.4-8.82 17.29 17.29 0 0 1-.24-6.47 16.22 16.22 0 0 1 3.17-8.24 12.34 12.34 0 0 1 5.49-4.2 7.27 7.27 0 0 1 5.63.25c1.81.84 3 2.55 3.66 5.13a32.79 32.79 0 0 1 1 7.81 58.28 58.28 0 0 1-.63 8.32 30.11 30.11 0 0 0 6.91-.08 47.74 47.74 0 0 0 4.84-1c1.48-.39 3-.81 4.61-1.26A28.36 28.36 0 0 1 1011 74q7.15-.16 9.77 4.54t1.51 13.61q-.79 7.06-1.35 14t-.63 13.27q-.09 6.39.31 12a51.17 51.17 0 0 0 1.67 10.17 10.92 10.92 0 0 0 2.3 4.71 3.41 3.41 0 0 0 2.86 1.17 5.83 5.83 0 0 0 3.18-1.68 17.23 17.23 0 0 0 3.1-3.86 69.22 69.22 0 0 0 4.37-8.83c1.43-3.41 2.72-6.78 3.89-10.08s2.14-6.25 2.94-8.83 1.29-4.31 1.5-5.21a3.32 3.32 0 0 1 1.91-2.43 5.2 5.2 0 0 1 2.94-.34 4.91 4.91 0 0 1 2.54 1.18 2.37 2.37 0 0 1 .71 2.38ZM856.28 71.62a88.69 88.69 0 0 0 6.91-25.21 66.45 66.45 0 0 0-1.35-25q-1.76 11.6-3.26 24.37t-2.3 25.84Zm-389.65 67.9q-7.31-1.34-12.23-2.1a54.37 54.37 0 0 0-7.63-.75 10.08 10.08 0 0 0-3.25.42c-.8.28-1.19 1.2-1.19 2.77a9.22 9.22 0 0 0 .79 3.45 13.44 13.44 0 0 0 2.14 3.53 12 12 0 0 0 3.26 2.68 7.06 7.06 0 0 0 4.13.93 13.9 13.9 0 0 0 8.82-3.45 20.09 20.09 0 0 0 5.16-7.48Zm1.11-9.24a23 23 0 0 0-2.86-9.83 97.75 97.75 0 0 0-5.8-9.25q-3.25-4.62-6.59-9.66a39.32 39.32 0 0 1-5.08-11.43q-1.76 4.71-3.26 10.08c-.79 2.84-1.62 5.68-2.45 8.52a2.37 2.37 0 0 1 0 1.06q-2.07 7.56-4.21 15.47c-.13.48-.28 1-.41 1.42a20.08 20.08 0 0 1 3.51-.42 59.07 59.07 0 0 1 12.55 1.18q6.98 1.35 14.6 2.86Zm130.41-43a19.1 19.1 0 0 0-1.43-2.44 15.14 15.14 0 0 0-2.3-2.69 11.88 11.88 0 0 0-3.18-2.1 7.9 7.9 0 0 0-4.37-.5q-3.81.49-6.83 5.8a57.49 57.49 0 0 0-5.16 13 116.1 116.1 0 0 0-3.88 33.36 45.68 45.68 0 0 0 2.07 12.77q1.74 5.13 5.24 5.3a8 8 0 0 0 6.43-2.86 26.83 26.83 0 0 0 4.85-8.15 68.77 68.77 0 0 0 3.41-11.68q1.35-6.56 2.38-13.62T597 99.6c.46-4.53.84-8.6 1.15-12.35Zm94.36 8.57a36.87 36.87 0 0 0-.48-6 19.25 19.25 0 0 0-1.51-5.13 8.71 8.71 0 0 0-2.78-3.45 6.68 6.68 0 0 0-4.45-1.09q-3.81.34-6.91 5.46a52 52 0 0 0-5.24 12.86 102.88 102.88 0 0 0-3.09 16.64 112 112 0 0 0-.64 16.56 45.68 45.68 0 0 0 2.07 12.77q1.74 5.13 5.24 5.3a7.52 7.52 0 0 0 6.19-2.94 28.56 28.56 0 0 0 4.69-8.07 71.46 71.46 0 0 0 3.33-11.1q1.35-6.14 2.15-12.18t1.11-11.26q.31-5.22.32-8.4Zm2.06 76.31q-4.29 3.36-9 6.47c-3.13 2.07-6.14 4.18-9.06 6.3a103.57 103.57 0 0 0-8.18 6.64 34 34 0 0 0-6.35 7.65A25.42 25.42 0 0 0 657.8 210a17.55 17.55 0 0 0 1 8.82 12.86 12.86 0 0 0 4.77 5.89 11.73 11.73 0 0 0 7.15 1.93 14.17 14.17 0 0 0 8.34-3.36 26.17 26.17 0 0 0 6.11-7.82 54.42 54.42 0 0 0 4.21-10.67 117.14 117.14 0 0 0 2.7-11.85q1-6 1.59-11.43t.9-9.38Zm234.3-84.88a20.38 20.38 0 0 0-1.43-2.44 15.14 15.14 0 0 0-2.3-2.69A11.88 11.88 0 0 0 922 80a7.91 7.91 0 0 0-4.37-.5q-3.81.49-6.83 5.8a57.49 57.49 0 0 0-5.16 13 109.44 109.44 0 0 0-3.18 16.73 106.11 106.11 0 0 0-.71 16.64 46.08 46.08 0 0 0 2.06 12.77c1.17 3.42 2.91 5.19 5.24 5.3a8 8 0 0 0 6.44-2.86 26.62 26.62 0 0 0 4.84-8.15 67.84 67.84 0 0 0 3.42-11.68q1.35-6.56 2.38-13.62t1.67-13.87q.59-6.75 1.07-12.31Z"/>
  <g mask="url(#a)">
    <path fill="url(#b)" d="M0 0v191h191V0Z"/>
    <path fill="url(#c)" d="M191 0H0v191h191Z"/>
  </g>
</svg>