<svg xmlns="http://www.w3.org/2000/svg" viewBox="0 0 1191.7 270.86">
  <defs>
    <radialGradient id="b" cx="950.86" cy="435.42" r="26.31" gradientTransform="matrix(0 -8.13 7.57 0 -3236.76 7964.82)" gradientUnits="userSpaceOnUse">
      <stop offset="0" stop-color="#fd5"/>
      <stop offset=".1" stop-color="#fd5"/>
      <stop offset=".17" stop-color="#ffd454"/>
      <stop offset=".27" stop-color="#ffbc51"/>
      <stop offset=".41" stop-color="#ff944d"/>
      <stop offset=".56" stop-color="#ff5e47"/>
      <stop offset=".6" stop-color="#ff5046"/>
      <stop offset=".72" stop-color="#e9403a"/>
      <stop offset=".9" stop-color="#d12f2d"/>
      <stop offset="1" stop-color="#c82828"/>
    </radialGradient>
    <radialGradient id="c" cx="795.34" cy="549.31" r="47.08" gradientTransform="matrix(.71 3.56 -111.55 22.34 60611.06 -15136.92)" gradientUnits="userSpaceOnUse">
      <stop offset="0" stop-color="#c80050"/>
      <stop offset=".13" stop-color="#c80050"/>
      <stop offset=".98" stop-color="#66005e" stop-opacity="0"/>
    </radialGradient>
    <mask id="a" x="0" y="0" width="215.88" height="215.88" maskUnits="userSpaceOnUse">
      <path d="M107.94 215.88c-43.85 0-68.43-6.69-84.84-23.1S0 151.79 0 107.94 6.69 39.51 23.1 23.1 64.09 0 107.94 0s68.43 6.69 84.84 23.1 23.1 41 23.1 84.84-6.7 68.43-23.1 84.84-40.99 23.1-84.84 23.1Zm0-191c-36.06 0-56.17 4.73-67.26 15.82s-15.82 31.2-15.82 67.26 4.73 56.17 15.82 67.26S71.88 191 107.94 191s56.17-4.73 67.26-15.82S191 144 191 107.94s-4.73-56.17-15.82-67.26S144 24.86 107.94 24.86Zm0 141.27a58.2 58.2 0 1 1 58.19-58.19 58.26 58.26 0 0 1-58.19 58.17Zm0-91.53a33.34 33.34 0 1 0 33.33 33.34 33.38 33.38 0 0 0-33.33-33.36Z" fill="#fff"/>
    </mask>
  </defs>
  <path d="M365.57 6.67C361 45.06 365.39 77 365.39 127c0 7.83-.26 29.87-3.37 40.83-7.64 27-27.16 38.5-40.25 35.61 27.61-28.38 12.38-131.22 17.05-171.88-30.38 38.9-29.13 61.4-18.13 69.7-.88 5.39-6.62 8.13-12.16 8.11-8.84 0-15.28-7-15.28-20.87 0-38 53.11-86.15 68.93-86.15 2.34-.01 3.82 1.08 3.39 4.32ZM1191.6 124c-5 17.36-14.91 59.91-37.91 59.91-25.5 0-26.12-32.25-26.12-44.75 0-13.63 2.17-29.23 3.72-38.33.55-3.23-7.43-1.32-9.69-1.14a29.59 29.59 0 0 1-6.1 0c-2.61 21.21-14.48 83.57-40.48 83.57-15.16 0-23.48-15-24-28.49-2.81 13.74-12.12 30.21-27.87 30.21-17 0-26.55-14.1-28.92-29.29-5.07 11.62-12.25 28.39-26.74 28.39-16.17 0-22-17-23.38-31.09-4.6 11.55-12.63 30.27-26.63 30.27-20.16 0-24.72-23.2-26.21-40.26-3.9 14.52-12.79 40.41-29.95 40.41-20 0-24.23-18.84-25-34.42-7.09 11.07-16 18.65-26.89 27.24-.1 38.55-6.44 94.59-49.1 94.59-25.34 0-29.6-20.87-29.6-29.87 0-19.34 14.08-32.73 29.79-42.68 8.15-5.17 17-10.08 24.68-15.77q.54-13.86.53-26c-3.19 13.41-12.24 28.5-28.07 28.5-16.83 0-27.33-14.12-30.2-29.35-4.67 10.87-12.63 27.63-25.73 27.63-15.57 0-23.93-15-24.41-28.49C674.53 168.64 665 185 649.19 185c-16.83 0-26.23-14.15-28.62-29.22-4.52 10.96-12.57 28.47-25.57 28.47-19.44 0-24.13-20.71-25.42-37.58a37.43 37.43 0 0 1-17.48 11.94c-4.36 17.29-18.78 26.37-37 26.21a30.42 30.42 0 0 1-29.31-20.75c-4.63 9.58-11.59 20.31-23.34 20.31-25.75 0-27.84-34.31-27.84-53.94 0-23 3.59-26-.47-26-2.69 0-6.24 8.43-7.8 12.44-6.08 15.61-12.17 40.65-16.79 59.73-1.23 5.1-1.18 7.09-7.52 7.09-11.16 0-19.94-8.09-19.94-21.9V88.34C382.08 77.32 407 80 407 90v50.58c4.42-16.17 16.79-62.25 37.49-62.25 15.3 0 15.42 11.88 15.42 20.25 0 11-1.87 69.19 8.63 69.19 12.5 0 26.41-66.3 30.54-81.32 2.71-9.87 7.21-17.29 19.08-17.29 6.63 0 16.28 3 16.28 10.07-3.94 6.18-7 9.52-11.13 14.81 1.6 12.79 30.73 27.17 30 53.76 9-4.19 12.45-11.52 15.31-20.2-.29-19.12.67-39.46 2.28-58.44L554.22 69c-4.61 0-3-12.72 1.61-12.72l16.16.19c.62-6.82 1.59-13.62 2.33-19.94 1.34-11.39 24.34-12.9 24.23 0q-1.45 10-2.51 20.13h18.13c5.6 0 3.77 12.72-1.08 12.72H595c-1.44 16.48-6.85 98 5.92 98 7.64 0 18.85-37.77 18.85-37.77 1.79-23.45 13.79-51.2 41-51.2 7 0 13.12 2.56 16.66 8.44-.29-7.85 24.57-6.8 24.33 1.15-.37 12.42-6.07 78.63 5.92 78.63 8.18 0 19-37.58 19-37.58 2.23-23.51 16.16-50.67 42.49-50.67 7.17 0 13.83 2.79 17.11 8.48-.09-8 24.77-6.67 24.24 1.14a716.88 716.88 0 0 0-1.08 76.16c12-10 22-21 26.66-36.06.23-14 .49-27.53 2.06-42.19.74-7 25.64-5.83 25.31 2.09-.45 10.4-8.63 76.82 3.24 76.82 13.63 0 24.33-69.89 26.37-82.14 1.15-6.86 25.18-5.76 24.95 2.28-.32 11.56-6.86 81.69 5.39 81.69 7.75 0 19.23-38.82 19.23-38.82s-.32-34.92 2.27-68.24c1.9-24.49 4.5-59.55 23-59.55 15 0 19.34 22.82 19.34 35 0 22.87-9.83 46.61-20.37 62.5 0 0-4.51 69.9 7.54 69.9 8.45 0 19.11-38.59 19.11-38.59 1.93-22.86 13.84-50.42 40.34-50.42 6.66 0 13.92 2.45 17.2 8.48-.21-7.87 24.71-6.77 24.41 1.14-.42 11.11-6.28 78.65 6 78.65 7.92 0 23.75-44.46 25.08-69.92-6.5-2.93-10.46-9.54-10.46-17.37 0-8.5 5.55-17 13-17 10.5 0 8.79 17.31 7.82 24.88 10.31 1.33 16-3.61 26.6-3.61 9.58 0 12 7 12 14.9 0 5-1.72 16.82-2.32 29.33-.89 18.67.38 38.73 7.39 38.73 9.44 0 19.65-36.16 21.87-43.46 1.16-5.45 10.25-3.48 9.13.82Zm-224-43.11c7.54-16.83 11.06-39.06 6.29-56.79-2.73 18.23-5.2 37.96-6.3 56.83Zm-440.3 76.73c-8.52-1.47-18.66-3.25-22-3.25-4.38 0-5.55.6-5.55 3.54 0 3.87 4.3 12.09 11.17 12.09 8.15 0 13.56-5.41 16.37-12.34Zm1.26-10.45c-.94-16.06-19-28.47-23-45.39-4.92 13.32-7.58 27.52-11.68 41.31 11.12-1.79 23.06 2.19 34.67 4.12Zm147.35-48.58c-4.17-9-14.48-13.39-20.46-2.18-7.94 14.5-10.71 35.77-10.23 52.42.45 6.95 1.37 19.94 8.26 20.42 6.8.1 10-6.27 12.74-12.44a77.63 77.63 0 0 0 3.86-13.2c3.04-14.26 4.67-30.75 5.83-45.02Zm106.62 9.69c0-6.63-1.51-17.67-9.34-17.67-14.67 0-19.16 40.21-19.16 53.78 0 6.26.49 24.89 8.83 24.89 15.83 0 19.67-48.13 19.67-61Zm2.34 86.23c-6.38 5.08-13.85 9.58-20.37 14.43-6.25 4.68-12.48 9.5-16.43 16.15-4.68 7.19-6.4 14.94-3.59 22.12 3.76 9.54 15.44 11.52 22.89 5 13.78-12.01 15.86-40.55 17.5-57.7Zm264.75-95.92c-2.42-5.2-7.1-8.85-11.43-8.85-12.17 0-19.31 32.25-19.31 56.41 0 4.17.64 23.1 8.3 23.1 18.68 0 20.75-56.5 22.44-70.66Z" fill="#0f172a"/>
  <g mask="url(#a)">
    <path d="M0 0v215.88h215.88V0Z" fill="url(#b)"/>
    <path d="M215.88 0H0v215.88h215.88Z" fill="url(#c)"/>
  </g>
</svg>