<svg xmlns="http://www.w3.org/2000/svg" viewBox="0 0 898.45 270.86">
  <g>
    <path d="M72.32 6.67C67.76 45.06 72.14 77 72.14 127c0 7.83-.25 29.87-3.36 40.83-7.65 27-27.17 38.5-40.26 35.61C56.13 175.05 40.91 72.21 45.57 31.55 15.19 70.45 16.44 93 27.44 101.25c-.88 5.39-6.61 8.13-12.16 8.11-8.84 0-15.28-7-15.28-20.87 0-38 53.11-86.15 68.94-86.15 2.34 0 3.76 1.09 3.38 4.33ZM898.36 124c-5 17.36-14.92 59.91-37.92 59.91-25.5 0-26.12-32.25-26.12-44.75 0-13.63 2.18-29.23 3.73-38.33.55-3.23-7.44-1.32-9.7-1.14a29.59 29.59 0 0 1-6.1 0c-2.6 21.21-14.47 83.57-40.47 83.57-15.17 0-23.49-15-24-28.49C755 168.55 745.69 185 730 185c-17 0-26.55-14.1-28.93-29.29-5.06 11.62-12.24 28.39-26.74 28.39-16.17 0-22-17-23.37-31.09-4.6 11.55-12.63 30.27-26.64 30.27-20.16 0-24.71-23.2-26.21-40.26-3.89 14.52-12.78 40.41-29.95 40.41-20 0-24.23-18.84-25-34.42-7.09 11.07-16 18.65-26.9 27.24-.1 38.55-6.43 94.59-49.1 94.59-25.33 0-29.6-20.87-29.6-29.87 0-19.34 14.08-32.73 29.79-42.68 8.15-5.17 17-10.08 24.68-15.77q.54-13.86.54-26c-3.2 13.41-12.24 28.5-28.08 28.5-16.83 0-27.33-14.12-30.19-29.35-4.68 10.87-12.64 27.63-25.74 27.63-15.57 0-23.93-15-24.41-28.49-2.87 13.83-12.37 30.19-28.21 30.19-16.83 0-26.23-14.15-28.61-29.22-4.52 10.94-12.55 28.45-25.62 28.45-19.43 0-24.13-20.71-25.42-37.58a37.4 37.4 0 0 1-17.47 11.94c-4.37 17.29-18.79 26.37-37 26.21a30.43 30.43 0 0 1-29.31-20.75c-4.63 9.58-11.59 20.31-23.34 20.31-25.75 0-27.84-34.31-27.84-53.94 0-23 3.59-26-.46-26-2.7 0-6.25 8.43-7.81 12.44-6.08 15.61-12.17 40.65-16.78 59.73-1.24 5.1-1.19 7.09-7.52 7.09-11.17 0-20-8.09-20-21.9V88.34c0-11 25-8.35 25 1.65v50.58c4.42-16.17 16.79-62.25 37.5-62.25 15.29 0 15.41 11.88 15.41 20.25 0 11-1.87 69.19 8.63 69.19 12.5 0 26.41-66.3 30.54-81.32 2.72-9.87 7.21-17.29 19.09-17.29 6.62 0 16.27 3 16.27 10.07-3.94 6.18-7 9.52-11.12 14.81 1.59 12.79 30.72 27.17 30 53.76 9.05-4.19 12.45-11.52 15.31-20.2-.29-19.12.67-39.46 2.28-58.44L261 69c-4.61 0-3-12.72 1.61-12.72l16.16.19c.62-6.82 1.59-13.62 2.33-19.94 1.34-11.39 24.34-12.9 24.23 0q-1.46 10-2.51 20.13h18.13c5.61 0 3.77 12.72-1.08 12.72h-18.16c-1.43 16.48-6.85 98 5.93 98 7.64 0 18.84-37.77 18.84-37.77 1.79-23.45 13.8-51.2 41-51.2 7 0 13.12 2.56 16.66 8.44-.2-7.87 24.65-6.77 24.41 1.14-.36 12.42-6.07 78.63 5.93 78.63 8.17 0 19-37.58 19-37.58 2.23-23.52 16.16-50.67 42.49-50.67 7.17 0 13.83 2.79 17.12 8.48-.09-8 24.76-6.67 24.23 1.14a719.54 719.54 0 0 0-1.08 76.16c12-10 22-21 26.66-36.06.24-14 .49-27.53 2.06-42.19.74-7 25.64-5.83 25.31 2.09-.44 10.4-8.63 76.82 3.25 76.82 13.62 0 24.33-69.89 26.37-82.14 1.14-6.86 25.17-5.76 24.95 2.28-.33 11.56-6.87 81.69 5.38 81.69 7.75 0 19.23-38.82 19.23-38.82s-.31-34.92 2.27-68.24C653.6 35.06 656.19 0 674.65 0 689.69 0 694 22.82 694 35c0 22.87-9.83 46.61-20.36 62.5 0 0-4.52 69.9 7.54 69.9 8.44 0 19.1-38.59 19.1-38.59 1.93-22.86 13.84-50.42 40.34-50.42 6.67 0 13.92 2.45 17.2 8.48-.22-7.87 24.7-6.82 24.4 1.13-.41 11.11-6.28 78.65 6 78.65 7.91 0 23.74-44.46 25.07-69.92-6.5-2.93-10.46-9.54-10.46-17.37 0-8.5 5.55-17 13.05-17 10.5 0 8.79 17.31 7.83 24.88 10.31 1.33 16-3.61 26.59-3.61 9.58 0 12 7 12 14.9 0 5-1.73 16.82-2.33 29.33-.89 18.67.38 38.73 7.39 38.73 9.45 0 19.65-36.16 21.87-43.46 1.15-5.4 10.25-3.43 9.13.87Zm-224-43.11c7.54-16.84 11-39.06 6.28-56.79-2.73 18.23-5.2 37.96-6.29 56.83ZM234 157.66c-8.52-1.47-18.66-3.25-22-3.25-4.38 0-5.54.6-5.54 3.54 0 3.87 4.29 12.09 11.16 12.09 8.2-.04 13.61-5.45 16.38-12.38Zm1.26-10.45c-.94-16.06-19-28.47-23-45.39-4.93 13.32-7.59 27.52-11.69 41.31 11.19-1.83 23.12 2.15 34.73 4.08Zm147.41-48.62c-4.18-9-14.49-13.39-20.47-2.18-7.94 14.5-10.71 35.77-10.23 52.42.45 6.95 1.37 19.94 8.26 20.42 6.81.1 10-6.27 12.74-12.44a76.73 76.73 0 0 0 3.86-13.2c3.05-14.26 4.68-30.75 5.84-45.02Zm106.62 9.69c0-6.63-1.51-17.67-9.34-17.67-14.67 0-19.16 40.21-19.16 53.78 0 6.26.49 24.89 8.83 24.89 15.82 0 19.67-48.13 19.67-61Zm2.33 86.23c-6.38 5.08-13.84 9.58-20.37 14.43-6.24 4.68-12.48 9.5-16.43 16.15-4.68 7.19-6.39 14.94-3.59 22.12 3.76 9.54 15.45 11.52 22.89 5 13.78-12.01 15.88-40.55 17.5-57.7Zm264.75-95.92c-2.42-5.2-7.09-8.85-11.43-8.85-12.16 0-19.31 32.25-19.31 56.41 0 4.17.65 23.1 8.31 23.1 18.67 0 20.75-56.5 22.43-70.66Z" fill="#0f172a"/>
  </g>
</svg>