<svg xmlns="http://www.w3.org/2000/svg" height="24" width="24" viewBox="0 0 24 24">
  <path fill="#1e293b" d="M15.92891.51311413c-.172769-.0179282-.346221-.0170526-.518464.001906-.688972.0758346-1.345453.44412226-1.747911 1.07695657l-3.594937 5.6459214c-1.7709792-.2492909-3.5819823-.0083848-5.1408005.8977816-.00127.0006305-.00255.00126-.00382.0019-1.3235218.7766326-1.5612754 2.6524703-.4746155 3.7359963l3.1489068 3.148907L.80005226 21.8197c-.95803331.919825.46020484 2.338063 1.38002934 1.380029l6.7972165-6.797216 3.1508129 3.150812c1.083418 1.086768 2.959492.848965 3.73599-.474623.000669-.0013.0013-.0025.002-.0038.906388-1.559511 1.14566-3.371.895875-5.142706l5.647828-3.593033a.66656495.66656495 0 0 0 .002 0c1.265625-.8060344 1.463655-2.6301887.402094-3.6902494l-.002-.0019-5.461072-5.4610368c-.397795-.39762492-.90361-.61907809-1.421916-.67286267Z"/>
</svg>