<svg xmlns="http://www.w3.org/2000/svg" height="24" width="24" viewBox="0 0 24 24">
  <path fill="#1e293b" d="M15.92891.51311413c-.172769-.0179282-.346221-.0170526-.518464.001906-.688972.0758346-1.345453.44412226-1.747911 1.07695657l-3.594937 5.6459214c-1.7709792-.2492909-3.5819823-.0083848-5.1408005.8977816a.97602996.97602996 0 0 0-.00382.0019c-1.3235218.7766326-1.5612754 2.6524703-.4746155 3.7359963l3.1489068 3.148907L.80005226 21.8197a.97602996.97602996 0 1 0 1.38002934 1.380029l6.7972165-6.797216 3.1508129 3.150812c1.083418 1.086768 2.959492.848965 3.73599-.474623a.97602996.97602996 0 0 0 .002-.0038c.906388-1.559511 1.14566-3.371.895875-5.142706l5.647828-3.593033a.97602996.97602996 0 0 0 .002 0c1.265625-.8060344 1.463655-2.6301887.402094-3.6902494l-.002-.0019-5.461072-5.4610368c-.397795-.39762492-.90361-.61907809-1.421916-.67286267Zm-.306885 1.91755457c.119478-.013055.244482.031055.34882.1353344l5.462933 5.462934a.97602996.97602996 0 0 0 0 .0019c.209302.2085178.17865.5027593-.07053.6614229l-6.107201 3.886574a.97602996.97602996 0 0 0-.425065 1.052177c.364736 1.515755.132809 3.112193-.649986 4.460316h-.002c-.154249.26027-.455019.298557-.669048.08387a.97602996.97602996 0 0 0-.002 0l-3.7338926-3.73408a.97602996.97602996 0 0 0-.2115791-.211579l-3.7359912-3.735991a.97602996.97602996 0 0 0 0-.002c-.2152701-.21451-.176374-.5170356.0857754-.6708586 1.347623-.7821169 2.9434652-1.0146009 4.4584105-.6499868a.97602996.97602996 0 0 0 1.052176-.4250642l3.886574-6.1072018c.07918-.1244933.193126-.1947122.312604-.2077669z"/>
</svg>