<svg xmlns="http://www.w3.org/2000/svg" height="24" width="24" viewBox="0 0 24 24">
  <path fill="#1e293b" d="M11.735 2c-5.51.001-9.999 4.491-9.999 10 0 5.51 4.49 10 10 10 4.236 0 8.019-2.674 9.432-6.667.25-.709-.362-1.424-1.102-1.286-.343.063-.626.306-.743.635-1.138 3.218-4.173 5.363-7.587 5.363-4.453 0-8.045-3.592-8.045-8.045 0-4.453 3.592-8.045 8.045-8.045h.002c2.197-.003 4.298.896 5.814 2.487.001.001.003.001.004.002l.46.536-2.234 2.232c-.473.474-.138 1.284.533 1.284h5.196c.417 0 .753-.338.753-.753V4.546c0-.67-.81-1.005-1.284-.53l-1.578 1.578-.415-.481-.016-.016C17.086 3.116 14.47 1.997 11.736 2h-.001Z"/>
</svg>