<svg xmlns="http://www.w3.org/2000/svg" height="24" width="24" viewBox="0 0 24 24">
  <path fill="#fff" d="M12.013418 1.0000808a1.0796685 1.0807105 0 0 0-.981419.6024666L8.0647414 7.6233757l-6.6418274.9727724a1.0796685 1.0807105 0 0 0-.59613517 1.8438539l4.80358427 4.681587-1.1347653 6.613703a1.0796685 1.0807105 0 0 0 1.5679696 1.139697L12 19.751373l5.936432 3.123616a1.0796685 1.0807105 0 0 0 1.567971-1.139697l-1.134766-6.613703 4.803584-4.681587a1.0796685 1.0807105 0 0 0-.596135-1.8438539l-6.637994-.9727724L12.968 1.6025474a1.0796685 1.0807105 0 0 0-.954582-.6024666Zm-.01342 3.5227027 2.254196 4.5664663a1.0796685 1.0807105 0 0 0 .81082.5909545l5.035522.7367747-3.643901 3.551483a1.0796685 1.0807105 0 0 0-.310526.957423l.858741 5.017356-4.502644-2.369573a1.0796685 1.0807105 0 0 0-1.004421 0l-4.5026406 2.369573.8587414-5.017356a1.0796685 1.0807105 0 0 0-.3105271-.957423l-3.6438961-3.551483 5.0393548-.7367747a1.0796685 1.0807105 0 0 0 .8108205-.5909545Z"/>
</svg>