<svg xmlns="http://www.w3.org/2000/svg" height="24" width="24" viewBox="0 0 24 24">
  <path fill="#fff" d="M12.009766 4.5957093a.90008998.90008998 0 0 0-.816407.501954l-1.7714842 3.589843-3.9648438.580078a.90008998.90008998 0 0 0-.4980468 1.5351567l2.8671875 2.792969-.6757813 3.945313a.90008998.90008998 0 0 0 1.3046875.947265L12 16.625007l3.544922 1.863281a.90008998.90008998 0 0 0 1.304687-.947265l-.675781-3.945313 2.867188-2.792969a.90008998.90008998 0 0 0-.498047-1.5351567l-3.962891-.580078-1.773437-3.589843a.90008998.90008998 0 0 0-.796875-.501954ZM12 7.5273503l1.175781 2.380859a.90008998.90008998 0 0 0 .675781.4921887l2.626954.384765-1.900391 1.84961a.90008998.90008998 0 0 0-.257813.796875l.447266 2.617187-2.349609-1.236328a.90008998.90008998 0 0 0-.835938 0l-2.3496093 1.236328.4472656-2.617187a.90008998.90008998 0 0 0-.2578125-.796875l-1.9003906-1.84961 2.6289068-.384765a.90008998.90008998 0 0 0 .675781-.4921887z"/>
  <path fill="#fff" d="M12 0C5.3842919 0 1.2e-7 5.3842918 1.2e-7 12 1.2e-7 18.615708 5.3842919 24 12 24c6.615708 0 12-5.384292 12-12 0-6.6157082-5.384292-12-12-12Zm0 2.0084994c5.530235 1e-7 9.991501 4.461266 9.991501 9.9915006 0 5.530235-4.461266 9.991501-9.991501 9.991501-5.5302344 0-9.9915003-4.461266-9.9915004-9.991501 0-5.5302346 4.461266-9.9915005 9.9915004-9.9915006Z"/>
</svg>