<svg xmlns="http://www.w3.org/2000/svg" height="24" width="24" viewBox="0 0 24 24">
  <path fill="#fff" d="M12.013418 1.0000808c-.415742-.00508086-.797459.2292452-.981419.6024666L8.0647414 7.6233757l-6.6418274.9727724C.53775646 8.7261642.18555161 9.8155384.82677883 10.440002l4.80358427 4.681587-1.1347653 6.613703c-.1526066.884107.7753112 1.558575 1.5679696 1.139697L12 19.751373l5.936432 3.123616c.792659.41888 1.720578-.255589 1.567971-1.139697l-1.134766-6.613703 4.803584-4.681587c.641227-.6244635.289022-1.7138377-.596135-1.8438539l-6.637994-.9727724L12.968 1.6025474c-.179677-.3645389-.548515-.5973241-.954582-.6024666Z"/>
</svg>