<svg xmlns="http://www.w3.org/2000/svg" height="12" width="12" viewBox="0 0 24 24">
  <path fill="#fff" d="M9.595 18.086c-.302-.175-.489-.498-.487-.846V11.6c-.002-.752.812-1.224 1.464-.847h.001l4.885 2.82c.652.377.654 1.316.001 1.692 0 .001 0 .001-.001.001l-4.885 2.822c-.302.173-.675.173-.978 0v-.002ZM8.297.498c-3.005 0-4.824.876-5.862 1.956C1.398 3.534.5 5.111.5 8.295v7.41c0 3.185.878 4.743 1.935 5.836.006.008.011.015.017.022 1.093 1.056 2.661 1.938 5.845 1.938h7.41c3.184 0 4.742-.882 5.836-1.938.008-.007.015-.014.022-.022 1.057-1.093 1.935-2.651 1.935-5.836v-7.41c0-3.184-.878-4.747-1.935-5.841-.007-.005-.014-.011-.022-.016-1.094-1.057-2.652-1.94-5.836-1.94h-7.41Zm4.878 1.503 2.217 3.876h-5.101L8.082 2.014l5.093-.013Zm1.734 0h.798c2.928 0 3.859.616 4.782 1.508.571.591 1.009 1.245 1.264 2.368h-4.626l-2.218-3.876Zm-8.498.117 2.146 3.759h-6.31c.255-1.123.692-1.777 1.264-2.368.687-.664 1.384-1.172 2.9-1.391ZM2.057 7.379h19.885c.018.304.055.555.055.916v7.41c0 2.93-.617 3.86-1.508 4.782-.923.891-1.854 1.508-4.782 1.508h-7.41c-2.929 0-3.863-.617-4.786-1.508-.892-.922-1.508-1.852-1.508-4.782v-7.41c0-.361.037-.612.054-.916Z"/>
</svg>