<svg xmlns="http://www.w3.org/2000/svg" height="12" width="12" viewBox="0 0 24 24">
  <path fill="#fff" d="M1.925 1.25c-.374-.001-.676.301-.675.675v20.156c.001.37.303.67.675.669h20.156c.369-.001.668-.3.669-.669V1.925c.001-.372-.299-.674-.669-.675H1.925Zm.671 1.346h5.392v5.392H2.596V2.596Zm6.738 0h5.342v5.392H9.334V2.596Zm6.684 0h5.395v5.392h-5.395V2.596ZM2.596 9.334h5.392v5.342H2.596V9.334Zm6.738 0h5.342v5.342H9.334V9.334Zm6.684 0h5.395v5.342h-5.395V9.334ZM2.596 16.018h5.392v5.395H2.596v-5.395Zm6.738 0h5.342v5.395H9.334v-5.395Zm6.684 0h5.395v5.395h-5.395v-5.395Z"/>
</svg>