<svg xmlns="http://www.w3.org/2000/svg" height="12" width="12" viewBox="0 0 24 24">
  <path fill="#fff" d="M11.987-.004c-.204.002-.398.084-.543.228L9.423 2.248c-.186.185-.436.289-.7.289H2.827C1.275 2.537 0 3.809 0 5.359v15.819c0 1.55 1.275 2.827 2.827 2.827h18.352c1.55 0 2.821-1.277 2.821-2.827V5.359c0-1.55-1.271-2.822-2.821-2.822h-5.902c-.264 0-.518-.104-.706-.289v-.005L12.552.227c-.149-.149-.352-.233-.565-.231ZM12 1.889l1.463 1.464v.003c.481.481 1.133.751 1.814.748h5.902c.7 0 1.252.552 1.252 1.255v15.819c0 .703-.552 1.254-1.252 1.254h-1.008c-.062-2.817-2.365-5.104-5.196-5.105H9.188c-2.832 0-5.14 2.288-5.202 5.105H2.827c-.703 0-1.258-.551-1.258-1.254V5.359c0-.703.555-1.255 1.258-1.255h5.896c.681 0 1.332-.267 1.813-.748L12 1.889Zm.083 4.301c-2.627 0-4.775 2.145-4.775 4.772 0 2.627 2.148 4.77 4.775 4.77 2.627 0 4.772-2.143 4.772-4.77S14.71 6.19 12.083 6.19Zm0 1.569c1.778 0 3.197 1.425 3.197 3.203 0 1.778-1.419 3.207-3.197 3.207S8.88 12.74 8.88 10.962c0-1.778 1.425-3.203 3.203-3.203ZM9.188 18.9h5.787c1.982 0 3.566 1.565 3.627 3.532H5.559C5.62 20.465 7.203 18.9 9.188 18.9Z"/>
</svg>