<svg xmlns="http://www.w3.org/2000/svg" height="24" width="24" viewBox="0 0 24 24">
  <path fill="#1e293b" d="M12.000002 15.705761c1.191466 0 2.202535-.408533 3.033206-1.2256.83067-.817064 1.246004-1.811573 1.246004-2.983526 0-1.171952-.415334-2.1664603-1.246004-2.9835256-.830671-.8170655-1.841739-1.2255981-3.033206-1.2255981-1.191467 0-2.2025369.4085326-3.0332078 1.2255981-.8306707.8170653-1.2460059 1.8115736-1.2460059 2.9835256 0 1.171953.4153352 2.166462 1.2460059 2.983526.8306709.817067 1.8417408 1.2256 3.0332078 1.2256zm0 3.322623c-2.4338566 0-4.6306486-.699543-6.5903763-2.09863-1.9597278-1.399087-3.4216215-3.210126-4.3856813-5.433119.9640598-2.2229922 2.4259535-4.0340316 4.3856813-5.433118 1.9597277-1.3990863 4.1565197-2.0986295 6.5903763-2.0986295 2.433855 0 4.630646.6995432 6.590373 2.0986295 1.959727 1.3990864 3.421621 3.2101259 4.385681 5.433118-.96406 2.222993-2.425954 4.034032-4.385681 5.433119-1.959727 1.399087-4.156518 2.09863-6.590373 2.09863zm0-1.935402c1.89651 0 3.64288-.509112 5.239109-1.527337 1.596229-1.018224 2.813158-2.374561 3.650785-4.06901-.837627-1.6944481-2.050604-3.0507847-3.638931-4.0690086-1.588327-1.018224-3.338648-1.527336-5.250963-1.527336-1.896511 0-3.6428825.509112-5.2391124 1.527336-1.5962299 1.0182239-2.8210598 2.3745605-3.6744897 4.0690086.8534299 1.694449 2.0743087 3.050786 3.6626364 4.06901 1.5883278 1.018225 3.3386497 1.527337 5.2509657 1.527337z"/>
</svg>